<svg class="icon" viewBox="0 0 1024 1024" version="1.1" xmlns="http://www.w3.org/2000/svg" width="16" height="16">
    <path d="M281.54537 121.32392C283.969642 142.209952 297.209894 187.338718 309.331252 214.565096 316.231102 230.41614 331.149696 256.52368 333.01452 256.52368 335.811756 256.52368 336.930651 236.197095 334.879344 220.532571 330.776731 186.965734 310.636629 143.888294 286.207431 116.661859L280.426475 110.134974 281.54537 121.32392Z"
          fill="#000000"/>
    <path d="M402.385983 169.436386C396.79151 175.403824 379.07568 203.189724 371.802865 217.36237 366.954322 226.686491 365.462463 232.280964 364.903015 242.164533 364.343568 249.250865 364.903015 255.77775 365.835427 256.710162 368.632664 259.507436 384.48367 244.21584 389.705234 233.959306 397.164475 219.227194 410.031763 168.876939 407.048044 165.89322 406.488597 165.520274 404.437215 167.012115 402.385983 169.436386Z"
          fill="#000000"/>
    <path d="M239.773306 209.903073C244.248884 218.108318 253.013559 231.907999 259.353961 240.299709 271.848284 257.083127 282.2913 264.355942 296.836929 266.780213L304.669191 268.085553 302.617884 260.812776C298.888236 247.386041 293.85321 240.113245 279.307581 228.178351 262.151197 213.819185 236.23014 194.984479 233.619386 194.984479 232.686974 194.984479 235.48421 201.697846 239.773306 209.903073Z"
          fill="#000000"/>
    <path d="M734.69767 232.280964C710.081989 236.197095 658.053392 244.029357 619.078564 249.810313 424.39091 278.715089 404.250808 281.88529 238.654412 306.873935 177.11521 316.198057 115.016562 325.522178 100.657415 327.573485 72.871533 331.676098 67.27706 333.913888 62.615 343.424491 60.190728 348.273034 60.936658 354.799919 70.447262 414.101331 89.281987 530.652849 99.538539 594.989231 117.440833 707.811155 127.13792 768.790909 136.089076 820.633024 137.207971 822.870813 138.513348 825.108602 142.242996 828.278804 145.786162 829.957146 151.7536 832.754382 153.618424 832.754382 169.655913 830.143628 198.001242 825.295085 195.763453 823.989708 199.120137 846.181117 201.730891 862.59157 202.849785 865.948254 206.952399 869.677903 209.563153 871.915692 213.292801 873.780516 214.971143 873.780516 216.649485 873.780516 253.386523 868.372526 296.463964 861.659158 651.153505 806.273877 619.078564 810.749456 624.85952 815.038551 627.470274 817.089858 630.826995 820.819507 632.132334 823.430261 653.204849 863.151018 671.480201 882.172225 701.130833 895.225995 706.538823 897.650267 711.573849 901.379915 712.133296 903.24474 713.99812 908.839213 721.6439 914.993133 725.000583 913.687756 728.916714 912.195896 728.916714 909.39866 725.187066 903.990669 722.203347 899.515091 721.6439 900.074538 730.968021 897.09082 736.748976 895.412478 733.95174 890.563935 726.30596 889.44504 719.592593 888.326146 718.846663 887.580216 718.846663 882.918155 718.846663 876.018305 723.322242 871.915692 730.595056 871.915692 734.138222 871.915692 745.700133 876.204788 757.635008 881.985743 784.861443 895.039513 798.47466 897.650267 816.376973 893.547654 832.973909 889.631523 843.603408 889.818005 860.386826 894.293583 882.9512 900.261021 904.210197 898.582679 942.252612 887.580216 960.341407 882.358708 965.003468 879.188507 961.460302 875.085893 959.595478 872.661622 957.357689 873.034586 944.863366 876.764235 925.469193 882.918155 896.377935 888.69911 885.934919 888.69911 881.086376 888.69911 868.592053 886.461321 857.962554 883.850567L838.754864 878.815542 821.225516 882.358708C796.982801 887.393733 787.845162 885.901874 759.872797 872.848104 737.308424 862.218606 727.238373 859.980816 719.406111 864.08343 714.74405 866.694184 709.522542 877.1372 709.522542 883.850567 709.522542 889.44504 708.217165 889.258558 691.806711 879.561471 676.515152 870.796797 657.493945 850.470213 648.72927 834.059759 644.999659 826.600462 640.151079 818.208753 638.099772 815.411516 636.234948 812.427797 634.743088 809.817043 635.116053 809.444079 636.234948 808.698149 680.058318 801.611817 807.425817 782.404127 868.965018 773.080005 922.11251 764.315331 925.282711 762.823472 936.285174 757.974854 936.658139 762.450507 917.450449 637.880245 910.737082 593.68391 901.039995 530.839331 896.00497 498.018424 873.254114 348.832482 864.302957 290.649964 863.370545 285.241974 862.25165 279.088054 856.470695 272.56115 850.316775 270.882827 848.265468 270.32338 839.500794 270.882827 830.73612 272.188204 821.971446 273.493562 814.325666 274.053028 813.579737 273.493562 812.833807 272.934134 811.155465 264.355942 809.850088 254.658856 807.985264 240.299709 806.679887 236.010613 802.763756 231.721517 795.677424 223.702773 786.912749 223.889255 734.69767 232.280964ZM794.185564 236.570042C797.915213 239.367297 796.050388 228.551316 843.04396 533.636568 858.149037 632.285772 868.032606 701.843718 867.286676 704.827474 866.727229 707.438191 864.302957 710.794874 861.878685 712.286734 859.454414 713.965075 807.985264 722.72975 729.103197 734.851107 658.426357 745.667014 598.565553 755.177692 596.327708 755.55062 590.733235 757.042516 589.614341 752.007491 590.360271 728.510668 591.1062 711.540804 590.733235 708.743568 588.122481 708.18412 583.460346 707.251708 582.341526 712.286734 581.222632 735.970002L580.476702 757.601964 567.422857 759.839678C533.296648 765.434226 223.362834 812.987245 193.898629 817.089858 153.804907 822.684331 150.634743 822.870813 147.278022 819.51413 145.59968 817.835788 142.056514 801.052369 137.953901 774.944829 129.562191 720.864925 112.03288 611.586148 88.536057 465.756964 69.328367 346.035245 69.141885 343.797456 76.787683 341.559667 79.957865 340.627255 190.91491 323.470872 234.924763 317.130469 246.300191 315.452127 282.664265 310.044137 316.044619 305.009111 373.667689 296.244437 460.754946 283.190667 645.186104 255.591268 690.314852 248.8779 739.919178 241.418603 755.210737 238.994332 789.337021 233.586341 790.082951 233.586341 794.185564 236.570042ZM891.342909 728.324222C893.394216 731.680906 890.224014 737.648344 886.494366 737.648344 882.391753 737.648344 880.153963 733.54573 881.832305 729.256635 882.9512 726.086433 889.664567 725.526986 891.342909 728.324222ZM855.911248 752.380456C855.911248 758.720858 850.316775 761.891059 846.400644 757.788446 841.738583 753.312868 844.53582 746.599426 850.876222 747.34543 854.792353 747.718395 855.911248 748.837289 855.911248 752.380456ZM898.802206 752.75342C900.480548 757.788446 897.496829 760.772165 892.461804 759.093823 888.172708 757.788446 887.426778 754.431762 890.783462 751.075079 894.140145 747.718395 897.496829 748.464362 898.802206 752.75342ZM594.649366 773.45297C602.668111 794.898449 602.481628 793.966037 597.446603 793.220107 593.716954 792.847142 592.225095 790.236388 587.935999 777.742066 585.325282 769.723321 583.460346 762.264024 583.83346 761.518095 586.44414 757.228999 590.173788 761.331612 594.649366 773.45297Z"
          fill="#000000"/>
    <path d="M652.645401 303.330769C500.848705 325.522178 477.724959 329.251827 473.249306 332.049063 471.011517 333.540923 467.654833 337.643536 465.976528 341.00022 463.17918 346.221728 462.992772 348.645999 464.857597 360.021427 466.162974 367.10776 472.130374 407.947411 478.284331 450.465405 484.438289 492.983398 490.032724 529.347472 490.592134 531.025776 491.151544 532.704156 494.135338 536.433804 497.119057 539.044614 501.408152 542.587724 504.951319 543.706619 511.664686 543.706619 525.83735 543.706619 765.840235 508.46144 772.553603 505.477665 781.131794 501.56159 786.353302 492.423951 785.234408 483.09983 784.67496 478.997142 778.707523 437.411635 771.994155 390.791028 759.126868 301.83891 758.56742 299.414638 748.497369 294.379613 741.597519 290.836447 732.646363 291.582376 652.645401 303.330769ZM746.446063 304.449664C749.802746 307.2469 751.108123 313.960268 755.956666 347.90007 759.126868 369.904996 764.721341 408.506859 768.450989 433.681986 776.656216 488.321338 776.842698 490.932092 771.807673 495.034742 769.010436 497.272494 735.443599 502.866967 642.202311 516.293702 573.017442 526.177271 513.902475 534.382497 510.732274 534.382497 507.562147 534.382497 503.645942 532.890601 502.154082 531.025776 500.102775 528.788025 496.186644 507.342601 489.473277 460.721938 484.251769 423.798418 478.284331 383.145248 476.233025 370.464443 473.062786 349.951376 472.876341 346.967657 475.300613 343.238009 478.657371 338.202983 471.197999 339.50836 574.322782 324.589766 620.570424 317.876399 674.277438 310.044137 693.671536 307.060418 736.935459 300.533533 741.597519 300.34705 746.446063 304.449664Z"
          fill="#000000"/>
    <path d="M699.825456 318.249364C695.163395 320.860118 695.349877 330.370721 700.011863 332.981475 704.673999 335.405747 705.046964 335.405747 708.403647 331.862581 712.506261 327.94645 712.133296 320.487153 707.8442 318.062881 703.555104 315.825092 703.741587 315.825092 699.825456 318.249364Z"
          fill="#000000"/>
    <path d="M726.30596 335.778712C724.441136 338.016501 724.441136 339.694843 725.932996 343.238009 730.035609 352.002683 741.038072 347.15414 738.613801 337.643536 737.308424 332.235546 730.035609 331.116651 726.30596 335.778712Z"
          fill="#000000"/>
    <path d="M704.301034 348.086552C704.673999 349.205447 705.792893 349.951376 706.725305 349.951376 707.657718 349.951376 708.776612 349.205447 709.149577 348.086552 709.522542 346.967657 708.403647 346.035245 706.725305 346.035245 705.046964 346.035245 703.928069 346.967657 704.301034 348.086552Z"
          fill="#000000"/>
    <path d="M527.888657 392.46937C520.615842 400.488114 519.310465 415.779673 524.904938 430.13882 526.769763 435.546811 528.07514 440.581836 527.32921 441.700731 526.769763 442.633143 521.734737 445.430379 516.326747 447.854651 506.256696 452.330229 503.645942 456.432843 509.240414 458.670632 512.597098 459.975971 529.380517 453.262641 532.550718 449.34651 534.22906 447.295129 537.02624 446.922239 543.739664 447.854651 555.861021 449.533049 563.879766 447.668224 573.763334 441.141284 581.968636 435.733293 582.341526 435.546811 588.868411 438.344047 602.668111 444.125002 620.197459 439.462942 626.724344 428.273996L630.081028 422.679523 636.42143 426.595654C644.813139 431.817162 655.62912 431.817162 662.342488 426.968619 666.258619 424.171383 668.309925 423.611935 670.547677 424.917312 675.76926 428.273996 686.771611 424.73083 692.179676 417.83098L697.214702 411.490578 702.249727 415.220226C709.149577 420.068769 722.016865 424.544347 725.373548 423.23897 730.968021 421.001181 728.357267 415.779673 720.525005 413.355402 716.235909 412.050025 708.776612 407.201482 703.741587 402.539421 696.095807 395.453089 694.230983 394.334194 691.806711 396.385501 690.314852 397.690878 689.009475 400.301632 689.009475 402.352939 689.009475 411.304095 680.617766 418.57691 674.090881 415.033744 671.293644 413.541884 670.361232 411.117613 670.361232 405.896105 670.361232 400.861079 669.42882 398.250325 667.191031 397.504395 662.715453 395.639571 660.664183 398.809772 659.545251 409.439271 658.23993 422.679523 654.137261 424.544347 640.710489 418.203945 638.286254 416.898568 634.743088 412.42299 632.878264 408.133894 627.843313 396.571983 622.994695 398.063843 622.621731 411.490578 622.435248 425.47676 610.500298 434.054951 595.768261 430.88475 591.292683 429.952338 590.173788 428.833443 591.1062 426.595654 593.903437 419.882287 594.276364 409.439271 592.038612 406.642034 588.681929 402.539421 579.54429 403.098868 577.120018 407.387964 576.187606 409.439271 575.255194 415.220226 575.255194 420.441734 575.255194 428.833443 574.695747 429.952338 568.914791 433.495504 557.352918 440.768319 539.63705 441.141284 542.620769 434.054951 549.707101 417.83098 549.893584 398.996255 543.366699 392.46937 538.891176 387.993792 531.991271 387.993792 527.888657 392.46937ZM538.704638 409.998718C538.518081 421.001181 536.280366 429.019926 534.22906 426.968619 531.245341 423.9849 530.126446 408.879824 532.364235 403.098868 535.161416 395.453089 538.891176 399.555702 538.704638 409.998718ZM584.019868 417.271533C583.460346 418.763392 582.901048 418.203945 582.901048 416.152638 582.714491 414.101331 583.273938 412.982437 583.83346 413.728367 584.39287 414.287814 584.579315 415.966156 584.019868 417.271533Z"
          fill="#000000"/>
    <path d="M350.543868 339.50836C342.338641 340.813737 288.631702 348.832482 231.195114 357.037709 173.758527 365.429418 124.527166 373.26168 121.543466 374.380574 114.270632 377.177811 108.489677 386.128967 108.676159 394.147712 108.676159 398.063843 110.913948 413.541884 113.524665 429.019926 116.135456 444.311485 123.408271 488.50782 129.562191 526.9232 155.110284 683.009067 155.296766 684.127887 159.026415 688.97643 165.553337 697.741067 173.199042 698.859999 198.933654 694.570903 211.61446 692.519596 267.559188 683.754922 323.317434 675.17673 391.38352 664.547232 426.442216 658.20683 429.985345 656.155448 432.969101 654.477181 436.69875 650.001603 438.377092 646.458437 441.360811 640.118034 441.174328 637.880245 429.985345 569.814159 399.0293 383.518213 394.180756 355.918814 391.570058 350.137859 388.213393 342.865044 378.702715 336.711124 371.056935 336.897606 368.073216 337.084089 358.749095 338.202983 350.543868 339.50836ZM379.448645 349.391929C383.364776 352.56213 385.789047 365.056453 407.607491 495.40767 420.847744 573.73029 431.104277 639.372104 430.54483 641.236929 428.493523 647.763814 420.474779 650.001603 373.667689 657.4609 347.560149 661.563513 294.039693 669.955223 254.6919 676.109143 215.344108 682.263063 180.471931 687.298088 177.301693 687.298088 168.164054 687.298088 165.180335 683.941479 163.129028 671.447082 161.077722 659.698689 128.629816 461.094903 121.916412 419.509322 117.627316 392.842335 118.000262 385.942485 124.527166 383.518213 126.764918 382.585801 158.467005 377.550776 194.831041 372.329268 231.195114 367.10776 284.902054 359.089015 314.179795 354.613437 377.58382 344.916351 374.227137 345.102833 379.448645 349.391929Z"
          fill="#000000"/>
    <path d="M340.6603 376.245399C341.779194 379.602082 345.881808 380.16153 345.881808 376.991328 345.881808 375.312986 344.576431 374.00761 342.898089 374.00761 341.219747 374.00761 340.287335 374.940022 340.6603 376.245399Z"
          fill="#000000"/>
    <path d="M359.681507 381.653389C357.816683 384.82359 362.105779 388.366756 364.716533 385.756002 366.954322 383.518213 365.462463 379.602082 362.665226 379.602082 361.732814 379.602082 360.427437 380.534494 359.681507 381.653389Z"
          fill="#000000"/>
    <path d="M340.846782 389.299169C341.219747 390.604546 342.711606 391.72344 344.016983 391.72344 345.32236 391.72344 346.81422 390.604546 347.373667 389.299169 347.746632 387.993792 346.441255 387.061379 344.016983 387.061379 341.592712 387.061379 340.287335 387.993792 340.846782 389.299169Z"
          fill="#000000"/>
    <path d="M242.197578 420.441734C238.094964 422.306558 231.568079 427.341584 227.838431 431.817162 204.528127 459.230079 224.668229 501.748073 261.032303 501.56159 280.612958 501.375108 296.277482 489.25375 301.312507 470.232542 306.720498 450.278922 295.158587 427.714549 275.577932 419.322839 266.999741 415.779673 251.148734 416.339121 242.197578 420.441734ZM236.23014 471.910884C239.400341 477.878322 247.419086 485.897066 253.573006 489.25375 257.116172 491.304982 257.116172 491.304982 253.945971 491.491539 248.165015 491.491539 237.908482 485.710584 233.992351 480.302593 228.211396 472.097367 225.787124 457.924702 228.58436 448.227541L231.008632 440.208871 232.127527 453.262641C232.873456 460.348974 234.738281 468.740683 236.23014 471.910884Z"
          fill="#000000"/>
    <path d="M256.18376 514.428878C215.717073 529.160989 191.66084 569.068229 195.576971 614.383496 196.3229 622.215721 197.255313 630.420948 197.81476 632.472255 199.679565 639.745069 218.887293 645.339542 248.724463 647.390849 266.626776 648.696226 297.209894 644.780095 317.722961 638.439692 333.76045 633.591149 361.732814 619.977932 370.68397 612.705117 378.889197 605.805267 379.448645 601.329689 373.854172 583.054486 365.835427 555.641532 345.695325 531.585261 320.333715 519.090938 306.16105 512.004606 303.550296 511.445159 286.766878 510.699266 270.915872 510.139782 266.813258 510.512747 256.18376 514.428878ZM342.152159 545.198478C342.152159 547.063303 341.592712 549.301092 340.846782 549.860539 338.981958 551.911771 334.879344 547.436267 335.998239 544.452549 337.490098 540.7229 342.152159 541.282347 342.152159 545.198478ZM352.96814 555.082047C352.595175 556.200942 351.47628 556.946871 350.543868 556.946871 349.611456 556.946871 348.492562 556.200942 348.119597 555.082047 347.746632 553.963152 348.865526 553.03074 350.543868 553.03074 352.22221 553.03074 353.341105 553.963152 352.96814 555.082047ZM338.42251 560.67652C338.42251 561.608932 337.117133 562.354862 335.625274 562.354862 332.828038 562.354862 331.895625 560.117073 333.946932 558.065766 335.438792 556.573906 338.42251 558.252248 338.42251 560.67652ZM212.360389 594.429914C216.835968 600.583759 217.022413 601.516171 214.038731 601.516171 211.427977 601.516171 212.173907 603.008031 217.208932 607.670092 220.752098 610.840293 225.787124 615.129389 228.397878 616.807731L233.059939 619.977932 228.58436 619.977932C225.041194 620.164414 224.668229 620.723862 226.346571 622.775168 229.143808 626.131927 242.197578 630.980432 256.556725 633.964114L268.4916 636.388385 259.353961 637.880245C248.351498 639.558512 224.108745 638.06669 215.717073 635.083009 212.360389 633.777632 208.817223 631.166878 207.698329 629.115608 205.274057 624.45351 203.036231 583.054486 205.460539 585.665165 206.392952 586.597577 209.376708 590.700153 212.360389 594.429914Z"
          fill="#000000"/>
    <path d="M793.626117 561.235967C790.269433 565.152042 793.253152 569.814159 799.034107 569.814159 804.815063 569.814159 807.798781 565.152042 804.442098 561.235967 803.323203 559.744108 800.898932 558.625213 799.034107 558.625213 797.169283 558.625213 794.745011 559.744108 793.626117 561.235967Z"
          fill="#000000"/>
    <path d="M819.547174 578.951723C815.258078 587.343507 818.801245 597.786523 826.074059 597.786523 828.684813 597.786523 831.48205 596.294738 832.600944 594.243357 835.211698 589.394814 835.025216 580.443657 832.227979 577.646421 828.871296 574.289737 821.784963 575.035667 819.547174 578.951723Z"
          fill="#000000"/>
    <path d="M707.657718 588.462402C675.396258 593.310945 619.638012 601.702654 583.646903 607.110644 491.151544 620.723862 495.06775 619.977932 495.06775 623.894063 495.06775 625.94537 495.813717 627.810194 496.746129 628.369641 497.678541 628.929088 526.769763 625.199514 561.455494 620.164414 596.327708 614.942906 658.612839 605.805267 700.198421 599.651347 741.784002 593.497502 777.588628 587.902954 780.0129 587.529989 782.623654 586.970542 784.115513 585.105718 784.115513 582.867929 784.115513 579.697727 782.996618 579.13828 775.350839 579.324725 770.315813 579.324725 739.919178 583.613896 707.657718 588.462402Z"
          fill="#000000"/>
    <path d="M654.51017 647.950296C627.843313 651.679945 604.9059 655.409593 603.600523 656.155448 600.616804 658.020273 600.616804 662.309443 603.787043 663.61482 605.838312 664.36075 687.704023 653.731251 704.860481 650.37453 710.641436 649.255673 712.506261 647.950296 712.879226 644.780095 713.625155 639.372104 714.557567 639.372104 654.51017 647.950296Z"
          fill="#000000"/>
    <path d="M166.485712 724.967539C165.553337 727.764775 175.623351 787.812117 177.86114 793.033625 178.793552 795.271414 181.404306 797.509203 183.455613 798.255133 185.320437 798.81458 199.866067 797.322721 215.717073 794.711967 231.381597 792.101213 274.459038 785.387845 311.382558 779.60689 392.315932 767.112567 391.570058 767.29905 391.570058 763.755884 391.570058 760.3992 389.705234 760.3992 341.219747 763.382919 321.825574 764.688296 295.34507 765.620708 282.477782 765.620708L259.167479 765.620708 268.4916 761.14513 277.815721 756.669551 252.640594 756.296587C238.840894 756.110104 221.684511 754.99121 214.411696 753.685833 200.984961 751.261598 201.357889 750.329186 216.276483 747.904933 226.346571 746.413018 231.381597 743.242817 223.9223 743.242817 217.395452 743.242817 188.677121 733.73225 176.369281 727.39181 170.401843 724.408091 166.858677 723.475679 166.485712 724.967539Z"
          fill="#000000"/>
</svg>