<svg class="icon" viewBox="0 0 1024 1024" version="1.1" xmlns="http://www.w3.org/2000/svg" width="16" height="16">
    <path d="M459.784426 62.894589C444.714353 64.804859 420.517334 70.747944 405.87177 76.478859 363.42086 92.822438 323.092496 129.117987 302.716059 169.658606 265.147004 243.947698 264.934749 320.783845 302.079295 388.280792 314.390059 410.779774 342.40766 441.768939 364.694387 457.68803 416.272243 494.620322 496.71676 505.657473 560.605337 484.432103 602.631738 470.423303 642.960102 440.919963 668.006139 406.110174 721.069776 332.033337 719.583994 223.571262 664.822405 150.555697 637.865993 114.684678 596.051846 82.421986 561.666609 71.172495 536.62053 63.106822 489.287808 59.073986 459.784426 62.894589ZM368.939478 141.428751C346.015987 170.29537 331.582678 196.190425 322.667987 224.844789 318.422896 238.004571 317.573877 245.008971 317.786132 265.173153 317.998387 301.044172 323.941514 327.151482 328.823369 313.779445 330.30915 309.746609 330.945914 311.444645 332.219441 323.543155 335.191005 353.895555 337.950314 359.201919 341.134132 340.948028 342.195405 333.731373 342.832169 332.882355 344.317951 336.278428 345.166969 338.613228 346.015987 343.495082 346.015987 347.315664 346.228242 357.079373 350.473333 375.545519 352.595878 375.545519 353.444896 375.545519 355.355187 370.663665 356.840969 364.932792 358.326751 358.989664 360.024787 354.320064 361.08606 354.320064 361.935078 354.320064 363.208606 360.899955 363.845369 368.965628 365.543406 390.403338 377.641915 412.265556 402.475697 439.00963 414.786504 452.381666 411.814897 451.957157 390.377188 437.523848 343.468932 405.685665 312.055259 352.197519 305.687623 293.190754 300.169004 242.249662 312.479768 199.798773 344.317951 160.107151 355.355187 146.52286 375.943879 127.207696 379.339951 127.207696 379.976715 127.207696 375.307115 133.575333 368.939478 141.428751ZM617.914065 163.29097C619.399847 166.050279 619.399847 167.536061 618.12632 167.536061 616.852792 167.536061 614.942501 165.62577 613.668974 163.29097 612.183107 160.531661 612.183107 159.045879 613.45672 159.045879 614.730311 159.045879 616.640538 160.95617 617.914065 163.29097ZM653.785084 245.008971C653.785084 248.405044 652.936066 252.86239 651.874793 254.560426 650.389054 256.682971 649.752248 253.499153 649.964502 243.947698 649.964502 234.396244 650.601266 231.42468 651.874793 234.396244 652.936066 236.731044 653.785084 241.400644 653.785084 245.008971ZM623.220429 408.869484C617.065047 418.420938 611.121835 424.364066 597.749883 433.915457 574.401819 450.471375 548.719082 460.447339 529.616215 460.447339 522.187263 460.235085 523.8853 459.386066 542.988294 452.169497 554.874464 447.499812 571.430319 439.434139 579.708246 434.127775 587.986174 428.821411 596.476398 424.364066 598.811156 424.364066 600.933701 424.364066 607.938101 419.694466 614.093483 413.751338 620.248865 408.020508 625.767483 403.350865 626.191908 403.138611 626.616459 403.138611 625.13072 405.685665 623.220429 408.869484Z"
          fill="#64748B"/>
    <path d="M410.116861 524.123704C333.280714 529.430068 277.670022 548.745189 222.05933 588.861342 196.588827 607.327487 166.660893 637.679824 150.954056 660.815676 136.733044 682.041089 119.115874 718.97338 112.111473 742.74589 101.286491 778.616909 95.343364 834.439855 99.80071 858.42462 107.017364 897.903966 139.704565 929.742148 184.914784 942.052912 232.459803 954.788185 336.676787 960.094549 441.742789 955.00044 500.537299 952.24113 524.946572 945.23673 545.110755 925.284803 559.119555 911.488257 559.968573 895.569166 547.657809 880.286838L541.290173 872.221165 554.662209 871.796656C581.194028 871.159893 588.622937 873.706947 593.717131 886.44222 596.476398 892.597602 596.264101 894.932402 592.23118 907.243166 584.377846 931.652439 590.745483 941.416148 622.583665 953.726912 652.299302 965.188658 654.846357 964.764149 673.100248 944.812221 690.292867 926.133821 700.905594 918.917166 710.881558 918.917166 721.069776 918.917166 725.314825 921.676475 744.630116 941.416148 763.520771 960.731312 772.010868 964.764149 785.807414 961.580331 811.27796 955.637203 818.494614 940.779385 814.249523 901.512293 812.975996 890.687311 813.61276 886.017711 816.159814 880.286838 820.61716 871.159893 827.197051 868.825092 857.973961 865.641274 877.501379 863.730983 880.897452 862.669711 889.599889 856.514329 902.547416 847.175128 911.674362 829.558001 911.674362 813.426655 911.886616 801.752655 911.674362 801.328146 901.486143 792.837964 875.166579 770.975745 874.317561 769.702218 873.256288 758.452727 871.770506 743.807226 877.501379 736.165999 902.122907 720.034653 912.947889 713.030253 922.711598 705.813598 923.772871 704.115562 929.928253 694.776404 920.589053 671.640552 905.51898 658.268579 893.632725 647.655852 884.930288 644.896543 872.40727 647.443597 849.483779 651.900943 832.927924 648.080361 827.197051 637.043209 825.28676 633.434797 822.95196 621.124033 821.890687 609.450033 819.555887 583.554978 815.098542 573.791269 802.363269 566.574614 794.50985 562.329523 790.264759 561.26825 776.043705 561.26825 756.940795 561.26825 748.026019 565.301087 738.262395 577.824147 729.347704 589.498105 721.918794 596.077996 714.277631 598.412796 708.122249 600.535342 705.575194 600.323087 697.297182 596.077996 689.019339 592.257414 685.198757 588.012408 673.949266 570.60745 666.520399 559.145705 657.81792 548.108468 654.846357 546.198177 651.874793 544.075632 644.44582 542.165341 638.502714 541.528577 632.347374 541.104068 625.979738 539.406032 624.281702 537.920313 617.914065 532.82614 602.419483 528.15654 583.316574 526.033995 557.421518 523.062431 443.44074 521.788946 410.116861 524.123704ZM580.344925 549.381995C591.594458 550.231014 601.570465 551.716795 602.207228 552.353559 603.056247 552.990408 600.509192 556.174226 596.90095 559.357959 587.137155 567.423632 583.528871 575.913814 581.618537 594.592214 579.920501 612.633851 575.67541 623.458833 568.883264 627.703924 566.548464 629.189706 555.298973 631.312251 543.837227 632.16127 514.546142 634.708324 507.11719 639.377839 495.655487 662.089161 490.561335 671.85287 489.712275 676.522513 489.500063 690.743525 489.500063 706.874871 490.136826 708.997417 499.688281 728.312581 512.635809 755.268824 512.635809 759.513999 499.051517 783.711018 485.467226 807.271273 481.009881 823.402619 484.193699 837.199165 487.802026 853.542765 492.047117 859.485892 513.484869 880.074584L534.073518 899.814257 530.8897 905.54513C526.856948 913.186293 504.570136 924.22353 487.377517 927.407348 466.576571 931.22793 378.278679 934.411748 330.30915 932.925966 260.477404 931.015675 210.809839 925.497057 183.429002 916.582366 154.986892 907.243166 133.549162 887.503493 126.120274 863.730983 115.719801 829.98251 128.879583 752.297345 153.288856 703.691053 176.424602 657.84407 217.38973 616.454433 268.967586 586.951136 310.357223 563.390796 354.718424 551.292286 413.088425 547.471704 443.44074 545.561413 547.657809 546.622686 580.344925 549.381995ZM646.568493 568.697159L652.936066 572.94225 647.629702 572.94225C631.073847 572.94225 615.367053 583.130469 607.513592 599.04956L602.843992 607.964315 603.905265 596.927014C605.391047 582.281451 607.725804 578.03636 619.612101 570.60745 631.073847 563.390796 637.865993 562.966287 646.568493 568.697159ZM788.778978 582.705917C792.599559 584.403996 796.420141 587.587729 797.056905 589.285851 798.118178 592.04516 797.905923 592.257414 795.358869 590.134954 793.660832 588.649002 787.080941 586.951136 780.925559 586.314287 771.16185 585.465184 768.614795 586.102032 761.82265 590.771675 752.271237 597.139269 751.209965 594.167705 759.912359 585.465184 767.129013 578.248614 777.529486 577.187341 788.778978 582.705917ZM586.075883 643.410761C578.222379 649.778397 574.826476 647.655852 582.255301 641.075961 586.288137 637.467633 589.68421 635.769597 590.108719 637.043209 590.533186 638.528906 588.835192 641.288215 586.075883 643.410761ZM556.784755 662.51367L564.850428 664.84847 554.874464 668.244543C545.110755 671.428361 542.351445 674.61218 538.106354 686.498434 536.62053 690.531186 536.62053 690.531186 535.5593 686.710646 531.73876 670.154834 521.12599 686.073925 523.673003 704.964665 524.734275 711.96898 527.493542 718.761126 532.163227 725.341017 547.021046 745.929708 550.204864 752.721854 550.417118 763.334581 550.841627 776.494363 546.172027 784.984545 533.649009 794.960509 527.918221 799.417855 520.276972 805.997746 516.45639 809.393819 507.753954 817.459491 508.602908 814.275673 521.550457 791.352182 538.106354 761.636545 538.530864 749.962545 523.673003 721.095926 518.578936 711.332217 513.909336 700.507235 513.060318 696.686653 510.937772 687.347368 514.970609 674.39984 522.187263 666.546507 527.493542 661.027888 529.828427 659.966616 538.318609 659.966616 543.837227 659.966616 552.115155 661.027888 556.784755 662.51367ZM883.869016 670.791598C889.812143 673.975416 898.090071 681.404325 898.090071 683.739125 898.090071 684.800398 895.543016 683.739125 892.359198 681.828834 887.901852 678.857271 882.383234 678.008252 869.011197 678.220507 859.247488 678.220507 851.39407 678.008252 851.39407 677.583786 851.39407 677.159234 854.577888 675.036689 858.39847 672.701889 866.039634 668.032289 876.864616 667.18327 883.869016 670.791598ZM737.837886 675.885771C767.341268 682.253343 784.746141 694.988616 795.995632 719.185635 800.665232 729.373853 801.51425 733.831199 801.51425 751.236072 801.51425 770.338981 801.089741 772.249272 793.236323 788.380618 776.043705 823.402619 743.568716 844.628074 707.060976 844.628074 682.227109 844.628074 661.213908 835.076619 644.44582 816.610473 628.526793 798.781091 622.159156 782.862 622.159156 759.513999 622.159156 699.870471 673.737012 662.301416 737.837886 675.885771ZM531.526463 687.559707C532.163227 689.894592 531.73876 691.804798 530.677488 691.804798 529.616215 691.804798 528.767154 689.894592 528.767154 687.559707 528.767154 685.224907 529.191663 683.314616 529.616215 683.314616 530.040682 683.314616 530.8897 685.224907 531.526463 687.559707ZM886.41607 821.280073C892.359198 833.166328 891.08567 839.533965 881.74647 845.901601 877.07687 848.873165 858.822979 850.571201 856.488179 848.236401 854.153379 845.901601 858.822979 840.382983 863.280324 840.382983 870.07247 840.382983 874.74207 832.741819 874.74207 821.067819 874.74207 804.936473 878.138143 805.148728 886.41607 821.280073ZM542.139191 814.063419C542.775955 814.912437 541.502427 818.945273 538.955373 823.402619 534.922536 830.194764 534.710282 832.105055 537.045082 837.623674 538.530864 841.019746 542.775955 845.477092 546.384197 847.387383L553.176427 850.783456 546.172027 850.783456C532.587736 851.207965 518.154427 841.019746 518.154427 831.256037 518.154427 822.553601 537.045082 808.969309 542.139191 814.063419ZM797.269159 926.55833C795.783378 935.260766 787.293196 942.265167 778.378505 942.265167 770.312832 942.265167 766.49225 939.081348 766.49225 932.289203 766.49225 927.831857 767.129013 927.619603 770.737341 929.529894 776.680468 932.713712 783.472614 930.166657 783.472614 925.072548 783.472614 922.313239 784.958396 921.039712 787.929959 921.039712 790.901523 921.039712 793.024069 918.917166 794.722105 914.459821L797.269159 907.667675 797.905923 913.610802C798.330432 917.006875 798.118178 922.737748 797.269159 926.55833Z"
          fill="#64748B"/>
    <path d="M452.355516 555.325123C407.994316 557.023159 359.175769 565.937808 326.064059 578.248614 307.597914 585.04076 278.094531 599.04956 289.980786 595.228978 311.418495 588.224578 327.762096 585.677523 349.199805 585.677523 397.169334 585.677523 439.407989 596.927014 463.817305 616.029924 469.760347 620.699524 471.458426 621.548457 469.760347 618.364724 466.576571 612.421597 457.025117 604.143754 445.351116 596.927014L434.950643 590.559378 443.865334 589.073681C450.65748 588.012408 454.902571 585.465184 461.058038 578.885378 476.128111 562.754032 491.410269 565.088832 551.690646 592.469669 559.119555 595.653487 566.123955 597.988287 567.185228 597.351524 568.2465 596.502505 569.095519 588.649002 569.095519 579.522141 569.095519 566.786868 568.2465 562.117268 565.699488 559.994723 560.605337 555.749674 501.810826 553.414832 452.355516 555.325123Z"
          fill="#64748B"/>
    <path d="M478.038317 575.064796C461.482462 579.097632 455.963844 587.163305 464.66628 594.804469 469.760347 599.474069 479.311844 602.870142 483.344681 601.172105 487.802026 599.474069 501.598572 578.885378 499.476026 576.762875 496.71676 574.003587 485.679481 573.154505 478.038317 575.064796Z"
          fill="#64748B"/>
    <path d="M510.088839 586.314287C504.994645 591.620651 503.933372 601.38436 507.966293 603.931415 509.45199 604.992687 513.272572 602.233378 517.517663 597.351524 524.097554 589.710402 524.309724 589.073681 520.913736 585.253014 516.45639 580.37116 515.607415 580.37116 510.088839 586.314287Z"
          fill="#64748B"/>
    <path d="M530.8897 591.832948C524.309724 604.355839 531.526463 609.66233 553.813191 608.601057L567.609737 607.964315 552.964173 597.77599C536.62053 586.738796 534.073518 585.889735 530.8897 591.832948Z"
          fill="#64748B"/>
    <path d="M142.888383 796.234037C138.643313 806.422255 135.671771 828.496728 137.15751 839.32171 142.039365 879.013311 175.151075 904.059348 230.549512 910.21473 281.490604 915.945602 337.73806 918.492657 331.370423 914.88433 327.97435 912.761784 292.315586 904.908366 268.755331 901.087784 255.17104 898.752984 254.534276 898.328475 261.114167 897.054948 264.934749 896.205929 273.424931 895.569166 279.580313 895.569166 285.94795 895.569166 291.042059 894.507893 291.042059 893.44662 291.042059 892.173093 290.61755 891.324075 290.193041 891.324075 288.707259 891.324075 258.991622 885.168693 252.83624 883.682911 247.954385 882.409384 248.803403 881.77262 260.265149 876.254002L273.000422 870.310874 264.934749 870.09862C256.232313 870.09862 215.05493 875.829493 212.295578 877.739784 211.234348 878.376547 210.38533 877.952038 210.38533 876.678511 210.38533 875.617238 214.842675 870.735383 220.361251 866.065783 225.667657 861.183929 229.488239 856.726583 228.851476 856.089819 228.214712 855.453056 220.149039 854.391783 211.022094 853.755019 196.801039 852.693747 192.555927 853.33051 183.853511 857.151092 178.33485 859.698147 173.028529 860.971674 172.391766 860.33491 171.755002 859.698147 176.849111 853.967274 183.641257 847.599638 190.645657 841.232001 195.527511 836.137892 194.466196 836.137892 193.404966 836.137892 187.674136 837.835928 181.518732 839.746219 175.151075 841.65651 169.420159 842.717783 168.783438 841.868765 166.660893 839.958474 174.514311 825.737419 179.396123 822.129092 185.976057 817.671746 181.730966 815.97371 170.481432 818.945273 147.770238 824.888401 148.831511 825.100655 148.619256 813.63891 148.407001 807.908037 147.558004 800.266873 146.708965 796.8708L145.223183 790.503164 142.888383 796.234037Z"
          fill="#64748B"/>
    <path d="M728.286431 697.747926C719.159485 698.596944 714.489949 702.417526 722.555558 702.417526 731.894758 702.417526 751.209965 710.695453 756.091777 716.850835L760.549122 722.581708 753.969231 724.279744C747.177086 725.977865 744.842286 730.010617 750.785413 730.010617 758.002068 730.010617 766.49225 738.713054 768.82705 748.264508 771.586359 759.08949 773.072141 758.452727 776.680468 745.717454 781.350068 729.161599 780.076541 722.369368 770.737341 713.242508 757.789813 700.719447 744.842286 695.837635 728.286431 697.747926Z"
          fill="#64748B"/>
</svg>